<svg width="500" height="500" viewBox="0 0 500 500" fill="none" xmlns="http://www.w3.org/2000/svg">
<g id="NULL-GRAPH">
<rect width="500" height="500" fill="#3B3C41"/>
<path id="&#208;&#162;&#209;&#131;&#209;&#130; &#208;&#191;&#208;&#190;&#208;&#186;&#208;&#176; &#208;&#189;&#208;&#181;&#209;&#130; &#208;&#179;&#209;&#128;&#208;&#176;&#209;&#132;&#208;&#176; :(" d="M140.382 258V243.552H137.022V240.528H146.958V243.552H143.598V258H140.382ZM153.582 258H150.222L152.358 252.36L147.726 240.528H151.158L154.038 248.376L156.726 240.528H160.086L153.582 258ZM164.195 258V243.552H160.835V240.528H170.771V243.552H167.411V258H164.195ZM177.799 258V240.528H188.647V258H185.455V243.528H181.015V258H177.799ZM201.95 255.936C200.798 257.488 199.27 258.264 197.366 258.264C195.462 258.264 193.934 257.488 192.782 255.936C191.63 254.384 191.054 252.256 191.054 249.552V249C191.054 246.28 191.63 244.144 192.782 242.592C193.95 241.04 195.486 240.264 197.39 240.264C199.294 240.264 200.822 241.04 201.974 242.592C203.126 244.144 203.702 246.272 203.702 248.976V249.528C203.702 252.232 203.118 254.368 201.95 255.936ZM195.182 253.8C195.742 254.808 196.478 255.312 197.39 255.312C198.302 255.312 199.03 254.816 199.574 253.824C200.134 252.832 200.414 251.368 200.414 249.432V249.12C200.414 247.2 200.134 245.736 199.574 244.728C199.014 243.72 198.278 243.216 197.366 243.216C196.454 243.216 195.718 243.712 195.158 244.704C194.614 245.696 194.342 247.16 194.342 249.096V249.408C194.342 251.328 194.622 252.792 195.182 253.8ZM206.112 258V240.528H209.328L209.304 247.776H210.264L213.888 240.528H217.488L212.904 249.048L217.728 258H214.128L210.216 250.656H209.304L209.328 258H206.112ZM217.876 258L222.748 240.456H225.988L230.884 258H227.596L226.612 254.28H222.004L221.044 258H217.876ZM222.772 251.424H225.844L224.332 245.424L222.772 251.424ZM237.635 258V240.528H240.851V247.704H245.315V240.528H248.531V258H245.315V250.728H240.851V258H237.635ZM251.417 258V240.528H260.465V243.504H254.609V247.728H259.793V250.704H254.609V255.024H260.561V258H251.417ZM265.492 258V243.552H262.132V240.528H272.068V243.552H268.708V258H265.492ZM279.096 258V240.528H287.64V243.528H282.312V258H279.096ZM289.667 258V240.528H293.963C295.819 240.528 297.283 241.04 298.355 242.064C299.443 243.088 299.987 244.544 299.987 246.432V246.48C299.987 248.384 299.435 249.856 298.331 250.896C297.243 251.936 295.819 252.488 294.059 252.552H292.883V258H289.667ZM292.883 249.624H293.843C294.787 249.624 295.507 249.352 296.003 248.808C296.499 248.248 296.747 247.496 296.747 246.552V246.528C296.747 245.552 296.507 244.8 296.027 244.272C295.547 243.728 294.827 243.464 293.867 243.48H292.883V249.624ZM299.696 258L304.568 240.456H307.808L312.704 258H309.416L308.432 254.28H303.824L302.864 258H299.696ZM304.592 251.424H307.664L306.152 245.424L304.592 251.424ZM319.763 258.192V256.44C317.731 256.248 316.107 255.52 314.891 254.256C313.675 252.976 313.067 251.312 313.067 249.264V249.168C313.067 247.12 313.675 245.464 314.891 244.2C316.107 242.936 317.731 242.208 319.763 242.016V240.312H322.979V242.016C324.995 242.176 326.611 242.896 327.827 244.176C329.059 245.44 329.675 247.104 329.675 249.168V249.264C329.675 251.312 329.067 252.976 327.851 254.256C326.635 255.52 325.011 256.248 322.979 256.44V258.192H319.763ZM326.411 249.264V249.168C326.411 247.92 326.099 246.912 325.475 246.144C324.867 245.376 324.011 244.928 322.907 244.8V253.656C324.011 253.528 324.867 253.08 325.475 252.312C326.099 251.528 326.411 250.512 326.411 249.264ZM316.331 249.168V249.264C316.331 250.512 316.635 251.528 317.243 252.312C317.867 253.08 318.731 253.528 319.835 253.656V244.8C318.699 244.928 317.827 245.376 317.219 246.144C316.627 246.896 316.331 247.904 316.331 249.168ZM330.048 258L334.92 240.456H338.16L343.056 258H339.768L338.784 254.28H334.176L333.215 258H330.048ZM334.944 251.424H338.016L336.504 245.424L334.944 251.424ZM349.783 248.208V244.656H353.311V248.208H349.783ZM349.783 258V254.424H353.311V258H349.783ZM362.951 259.392L361.895 261.384C359.911 260.536 358.431 259.2 357.455 257.376C356.479 255.552 355.991 253.36 355.991 250.8V250.776C355.991 248.232 356.479 246.048 357.455 244.224C358.431 242.4 359.911 241.064 361.895 240.216L362.951 242.208C360.343 243.712 359.039 246.576 359.039 250.8V250.824C359.039 255.08 360.343 257.936 362.951 259.392Z" fill="white"/>
</g>
</svg>
