<svg width="500" height="500" viewBox="0 0 500 500" fill="none" xmlns="http://www.w3.org/2000/svg">
<g id="NULL_PLAN">
<rect x="2.5" y="2.5" width="495" height="495" fill="#3B3C41"/>
<rect x="2.5" y="2.5" width="495" height="495" stroke="#A5A5A7" stroke-width="5"/>
<path id="&#208;&#162;&#209;&#131;&#209;&#130; &#208;&#188;&#208;&#190;&#208;&#179; &#208;&#177;&#209;&#139; &#208;&#177;&#209;&#139;&#209;&#130;&#209;&#140; &#208;&#191;&#208;&#187;&#208;&#176;&#208;&#189;, &#226;&#128;&#168;&#208;&#189;&#208;&#190; &#208;&#178;&#209;&#139; &#208;&#181;&#208;&#179;&#208;&#190; &#208;&#189;&#208;&#181; &#208;&#189;&#208;&#176;&#209;&#128;&#208;&#184;&#209;&#129;&#208;&#190;&#208;&#178;&#208;&#176;&#208;&#187;&#208;&#184; :(" d="M130.402 244V229.552H127.042V226.528H136.978V229.552H133.618V244H130.402ZM143.602 244H140.242L142.378 238.36L137.746 226.528H141.178L144.058 234.376L146.746 226.528H150.106L143.602 244ZM154.214 244V229.552H150.854V226.528H160.79V229.552H157.43V244H154.214ZM167.819 244V226.528H171.107L174.275 233.488L177.419 226.528H180.731V244H177.587V232.864L174.275 239.992H174.227L170.915 232.912V244H167.819ZM194.008 241.936C192.856 243.488 191.328 244.264 189.424 244.264C187.52 244.264 185.992 243.488 184.84 241.936C183.688 240.384 183.112 238.256 183.112 235.552V235C183.112 232.28 183.688 230.144 184.84 228.592C186.008 227.04 187.544 226.264 189.448 226.264C191.352 226.264 192.88 227.04 194.032 228.592C195.184 230.144 195.76 232.272 195.76 234.976V235.528C195.76 238.232 195.176 240.368 194.008 241.936ZM187.24 239.8C187.8 240.808 188.536 241.312 189.448 241.312C190.36 241.312 191.088 240.816 191.632 239.824C192.192 238.832 192.472 237.368 192.472 235.432V235.12C192.472 233.2 192.192 231.736 191.632 230.728C191.072 229.72 190.336 229.216 189.424 229.216C188.512 229.216 187.776 229.712 187.216 230.704C186.672 231.696 186.4 233.16 186.4 235.096V235.408C186.4 237.328 186.68 238.792 187.24 239.8ZM198.17 244V226.528H206.714V229.528H201.386V244H198.17ZM213.71 244V226.528H223.142V229.48H216.878V233.224H218.39C220.214 233.224 221.646 233.664 222.686 234.544C223.726 235.424 224.246 236.728 224.246 238.456V238.504C224.246 240.264 223.71 241.624 222.638 242.584C221.566 243.528 220.054 244 218.102 244H213.71ZM216.878 241.072H218.318C219.198 241.072 219.87 240.848 220.334 240.4C220.798 239.936 221.03 239.328 221.03 238.576V238.552C221.03 237.784 220.814 237.176 220.382 236.728C219.95 236.28 219.278 236.064 218.366 236.08H216.878V241.072ZM226.46 244V226.528H229.676V232.216H230.732C232.604 232.216 234.076 232.712 235.148 233.704C236.236 234.696 236.78 236.136 236.78 238.024V238.072C236.78 239.96 236.22 241.424 235.1 242.464C233.996 243.488 232.452 244 230.468 244H226.46ZM238.388 244V226.528H241.604V244H238.388ZM229.676 241.048H230.732C231.628 241.048 232.316 240.784 232.796 240.256C233.292 239.712 233.54 239 233.54 238.12V238.096C233.54 237.184 233.308 236.464 232.844 235.936C232.38 235.408 231.692 235.144 230.78 235.144H229.676V241.048ZM249.452 244V226.528H258.884V229.48H252.62V233.224H254.132C255.956 233.224 257.388 233.664 258.428 234.544C259.468 235.424 259.988 236.728 259.988 238.456V238.504C259.988 240.264 259.452 241.624 258.38 242.584C257.308 243.528 255.796 244 253.844 244H249.452ZM252.62 241.072H254.06C254.94 241.072 255.612 240.848 256.076 240.4C256.54 239.936 256.772 239.328 256.772 238.576V238.552C256.772 237.784 256.556 237.176 256.124 236.728C255.692 236.28 255.02 236.064 254.108 236.08H252.62V241.072ZM262.202 244V226.528H265.418V232.216H266.474C268.346 232.216 269.818 232.712 270.89 233.704C271.978 234.696 272.522 236.136 272.522 238.024V238.072C272.522 239.96 271.962 241.424 270.842 242.464C269.738 243.488 268.194 244 266.21 244H262.202ZM274.13 244V226.528H277.346V244H274.13ZM265.418 241.048H266.474C267.37 241.048 268.058 240.784 268.538 240.256C269.034 239.712 269.282 239 269.282 238.12V238.096C269.282 237.184 269.05 236.464 268.586 235.936C268.122 235.408 267.434 235.144 266.522 235.144H265.418V241.048ZM282.769 244V229.552H279.409V226.528H289.345V229.552H285.985V244H282.769ZM291.405 244V226.528H294.621V232.216H295.677C297.549 232.216 299.021 232.712 300.093 233.704C301.181 234.696 301.725 236.136 301.725 238.024V238.072C301.725 239.96 301.165 241.424 300.045 242.464C298.941 243.488 297.397 244 295.413 244H291.405ZM294.621 241.048H295.677C296.573 241.048 297.261 240.784 297.741 240.256C298.237 239.712 298.485 239 298.485 238.12V238.096C298.485 237.184 298.253 236.464 297.789 235.936C297.325 235.408 296.637 235.144 295.725 235.144H294.621V241.048ZM308.749 244V226.528H319.597V244H316.405V229.528H311.965V244H308.749ZM329.275 226.456L334.003 244H330.619L327.667 232.168L324.691 244H321.403L326.155 226.456H329.275ZM334.364 244L339.236 226.456H342.476L347.372 244H344.084L343.1 240.28H338.492L337.532 244H334.364ZM339.26 237.424H342.332L340.82 231.424L339.26 237.424ZM349.155 244V226.528H352.371V233.704H356.835V226.528H360.051V244H356.835V236.728H352.371V244H349.155ZM362.384 247.96L362.12 246.664C363.704 246.328 364.424 245.44 364.28 244H362.768V240.424H366.32V243.4C366.32 246.168 365.008 247.688 362.384 247.96ZM103.706 273V255.528H106.922V262.704H111.386V255.528H114.602V273H111.386V265.728H106.922V273H103.706ZM127.903 270.936C126.751 272.488 125.223 273.264 123.319 273.264C121.415 273.264 119.887 272.488 118.735 270.936C117.583 269.384 117.007 267.256 117.007 264.552V264C117.007 261.28 117.583 259.144 118.735 257.592C119.903 256.04 121.439 255.264 123.343 255.264C125.247 255.264 126.775 256.04 127.927 257.592C129.079 259.144 129.655 261.272 129.655 263.976V264.528C129.655 267.232 129.071 269.368 127.903 270.936ZM121.135 268.8C121.695 269.808 122.431 270.312 123.343 270.312C124.255 270.312 124.983 269.816 125.527 268.824C126.087 267.832 126.367 266.368 126.367 264.432V264.12C126.367 262.2 126.087 260.736 125.527 259.728C124.967 258.72 124.231 258.216 123.319 258.216C122.407 258.216 121.671 258.712 121.111 259.704C120.567 260.696 120.295 262.16 120.295 264.096V264.408C120.295 266.328 120.575 267.792 121.135 268.8ZM137.034 273V255.528H141.666C143.682 255.528 145.186 256.024 146.178 257.016C146.946 257.784 147.33 258.776 147.33 259.992V260.088C147.33 261.848 146.506 263.144 144.858 263.976C145.802 264.36 146.53 264.872 147.042 265.512C147.57 266.136 147.834 266.976 147.834 268.032V268.2C147.834 269.72 147.282 270.904 146.178 271.752C145.09 272.584 143.634 273 141.81 273H137.034ZM144.186 260.616V260.568C144.186 259.864 143.97 259.336 143.538 258.984C143.122 258.616 142.522 258.432 141.738 258.432H140.202V262.824H141.618C142.402 262.824 143.026 262.632 143.49 262.248C143.954 261.864 144.186 261.32 144.186 260.616ZM144.642 267.84V267.816C144.642 267.112 144.402 266.56 143.922 266.16C143.458 265.76 142.802 265.56 141.954 265.56H140.202V270.096H142.002C142.818 270.096 143.458 269.904 143.922 269.52C144.402 269.12 144.642 268.56 144.642 267.84ZM149.971 273V255.528H153.187V261.216H154.243C156.115 261.216 157.587 261.712 158.659 262.704C159.747 263.696 160.291 265.136 160.291 267.024V267.072C160.291 268.96 159.731 270.424 158.611 271.464C157.507 272.488 155.963 273 153.979 273H149.971ZM161.899 273V255.528H165.115V273H161.899ZM153.187 270.048H154.243C155.139 270.048 155.827 269.784 156.307 269.256C156.803 268.712 157.051 268 157.051 267.12V267.096C157.051 266.184 156.819 265.464 156.355 264.936C155.891 264.408 155.203 264.144 154.291 264.144H153.187V270.048ZM172.963 273V255.528H182.011V258.504H176.155V262.728H181.339V265.704H176.155V270.024H182.107V273H172.963ZM184.495 273V255.528H193.039V258.528H187.711V273H184.495ZM204.661 270.936C203.509 272.488 201.981 273.264 200.077 273.264C198.173 273.264 196.645 272.488 195.493 270.936C194.341 269.384 193.765 267.256 193.765 264.552V264C193.765 261.28 194.341 259.144 195.493 257.592C196.661 256.04 198.197 255.264 200.101 255.264C202.005 255.264 203.533 256.04 204.685 257.592C205.837 259.144 206.413 261.272 206.413 263.976V264.528C206.413 267.232 205.829 269.368 204.661 270.936ZM197.893 268.8C198.453 269.808 199.189 270.312 200.101 270.312C201.013 270.312 201.741 269.816 202.285 268.824C202.845 267.832 203.125 266.368 203.125 264.432V264.12C203.125 262.2 202.845 260.736 202.285 259.728C201.725 258.72 200.989 258.216 200.077 258.216C199.165 258.216 198.429 258.712 197.869 259.704C197.325 260.696 197.053 262.16 197.053 264.096V264.408C197.053 266.328 197.333 267.792 197.893 268.8ZM213.792 273V255.528H217.008V262.704H221.472V255.528H224.688V273H221.472V265.728H217.008V273H213.792ZM227.573 273V255.528H236.621V258.504H230.765V262.728H235.949V265.704H230.765V270.024H236.717V273H227.573ZM244.073 273V255.528H247.289V262.704H251.753V255.528H254.969V273H251.753V265.728H247.289V273H244.073ZM256.774 273L261.646 255.456H264.886L269.782 273H266.494L265.51 269.28H260.902L259.942 273H256.774ZM261.67 266.424H264.742L263.23 260.424L261.67 266.424ZM271.565 273V255.528H275.861C277.717 255.528 279.181 256.04 280.253 257.064C281.341 258.088 281.885 259.544 281.885 261.432V261.48C281.885 263.384 281.333 264.856 280.229 265.896C279.141 266.936 277.717 267.488 275.957 267.552H274.781V273H271.565ZM274.781 264.624H275.741C276.685 264.624 277.405 264.352 277.901 263.808C278.397 263.248 278.645 262.496 278.645 261.552V261.528C278.645 260.552 278.405 259.8 277.925 259.272C277.445 258.728 276.725 258.464 275.765 258.48H274.781V264.624ZM295.149 273H292.005V262.08L286.845 273H283.893V255.528H287.037V266.064L292.029 255.528H295.149V273ZM303.929 273.192C301.977 273.192 300.425 272.44 299.273 270.936C298.137 269.416 297.569 267.256 297.569 264.456V264.072C297.569 261.304 298.177 259.16 299.393 257.64C300.609 256.104 302.185 255.336 304.121 255.336C305.753 255.336 307.129 255.896 308.249 257.016L306.425 259.584C305.673 258.8 304.897 258.408 304.097 258.408C303.153 258.408 302.377 258.912 301.769 259.92C301.161 260.928 300.857 262.352 300.857 264.192V264.312C300.857 266.216 301.161 267.664 301.769 268.656C302.393 269.632 303.153 270.12 304.049 270.12C304.913 270.12 305.753 269.688 306.569 268.824L308.273 271.32C306.977 272.568 305.529 273.192 303.929 273.192ZM320.114 270.936C318.962 272.488 317.434 273.264 315.53 273.264C313.626 273.264 312.098 272.488 310.946 270.936C309.794 269.384 309.218 267.256 309.218 264.552V264C309.218 261.28 309.794 259.144 310.946 257.592C312.114 256.04 313.65 255.264 315.554 255.264C317.458 255.264 318.986 256.04 320.138 257.592C321.29 259.144 321.866 261.272 321.866 263.976V264.528C321.866 267.232 321.282 269.368 320.114 270.936ZM313.346 268.8C313.906 269.808 314.642 270.312 315.554 270.312C316.466 270.312 317.194 269.816 317.738 268.824C318.298 267.832 318.578 266.368 318.578 264.432V264.12C318.578 262.2 318.298 260.736 317.738 259.728C317.178 258.72 316.442 258.216 315.53 258.216C314.618 258.216 313.882 258.712 313.322 259.704C312.778 260.696 312.506 262.16 312.506 264.096V264.408C312.506 266.328 312.786 267.792 313.346 268.8ZM324.276 273V255.528H328.908C330.924 255.528 332.428 256.024 333.42 257.016C334.188 257.784 334.572 258.776 334.572 259.992V260.088C334.572 261.848 333.748 263.144 332.1 263.976C333.044 264.36 333.772 264.872 334.284 265.512C334.812 266.136 335.076 266.976 335.076 268.032V268.2C335.076 269.72 334.524 270.904 333.42 271.752C332.332 272.584 330.876 273 329.052 273H324.276ZM331.428 260.616V260.568C331.428 259.864 331.212 259.336 330.78 258.984C330.364 258.616 329.764 258.432 328.98 258.432H327.444V262.824H328.86C329.644 262.824 330.268 262.632 330.732 262.248C331.196 261.864 331.428 261.32 331.428 260.616ZM331.884 267.84V267.816C331.884 267.112 331.644 266.56 331.164 266.16C330.7 265.76 330.044 265.56 329.196 265.56H327.444V270.096H329.244C330.06 270.096 330.7 269.904 331.164 269.52C331.644 269.12 331.884 268.56 331.884 267.84ZM336.063 273L340.935 255.456H344.175L349.071 273H345.783L344.799 269.28H340.191L339.231 273H336.063ZM340.959 266.424H344.031L342.519 260.424L340.959 266.424ZM357.295 255.456L362.023 273H358.639L355.687 261.168L352.711 273H349.423L354.175 255.456H357.295ZM375.071 273H371.927V262.08L366.767 273H363.815V255.528H366.959V266.064L371.951 255.528H375.071V273ZM382.916 263.208V259.656H386.444V263.208H382.916ZM382.916 273V269.424H386.444V273H382.916ZM396.084 274.392L395.028 276.384C393.044 275.536 391.564 274.2 390.588 272.376C389.612 270.552 389.124 268.36 389.124 265.8V265.776C389.124 263.232 389.612 261.048 390.588 259.224C391.564 257.4 393.044 256.064 395.028 255.216L396.084 257.208C393.476 258.712 392.172 261.576 392.172 265.8V265.824C392.172 270.08 393.476 272.936 396.084 274.392Z" fill="#FF5F5F" fill-opacity="0.5"/>
</g>
</svg>
